<?xml version="1.0" encoding="UTF-8"?>
<svg width="256px" height="256px" viewBox="0 0 256 256" version="1.1" xmlns="http://www.w3.org/2000/svg" xmlns:xlink="http://www.w3.org/1999/xlink">
    <title>大模型logo备份</title>
    <g id="页面-1" stroke="none" stroke-width="1" fill="none" fill-rule="evenodd">
        <g id="大模型logo备份">
            <circle id="椭圆_1" fill="#FFFFFF" fill-rule="nonzero" cx="128" cy="128" r="128"></circle>
            <polygon id="形状_1" fill="#28A7E1" points="112 70 135.108108 70 188 159.309735 188 186 164.891892 186 164.891892 160.849558"></polygon>
            <polygon id="形状_2" fill="#D0E321" points="178 134.654545 190.297521 154 240 70 216.942149 70"></polygon>
            <path d="M46.2001912,70.0021778 C50.5472556,70.1135562 109.668456,70.0021778 109.668456,70.0021778 L97.8961168,87.9664423 L46.7120321,87.9664423 C46.7120321,87.9664423 35.4515335,90.880246 35.4515335,100.79806 C35.4515335,110.715874 44.4394587,115.169471 46.7120321,115.169471 L91.7540266,115.169471 C95.5456395,115.472144 99.2548863,116.439603 102.713051,118.027842 C112.061312,122.206844 124,131.744842 124,150.584736 C124,168.099894 112.637133,177.781092 103.297573,182.3589 C99.5144205,184.250185 95.4376623,185.481492 91.2421858,186 L16.0015813,186 L28.2857616,167.009206 L90.2185041,167.009206 C90.2185041,167.009206 103.787405,164.376158 103.526366,149.558206 C103.296038,136.493567 88.6829816,134.160265 88.6829816,134.160265 L45.1765096,134.160265 C45.1765096,134.160265 15.7518029,130.477591 16.0015813,100.79806 C16.1945453,77.8381899 40.1942507,69.8481983 46.2001912,70.0021778 Z" id="形状_3" fill="#28A7E1"></path>
        </g>
    </g>
</svg>